<svg xmlns="http://www.w3.org/2000/svg" width="144" height="144" viewBox="0 0 144 144">
  <defs>
    <style>
      .cls-1 {
        fill-rule: evenodd;
      }
    </style>
  </defs>
  <path id="M" class="cls-1" d="M3.881,112.067q5.88-.274,10.127-0.408t8-.136q3.43,0,5.472.068t4.492,0.2q2.45,0.133,6.86.136a6.794,6.794,0,0,0,2.613-.544,1.708,1.708,0,0,0,1.307-1.5,2.061,2.061,0,0,0-1.47-1.973,14.559,14.559,0,0,0-2.94-.885q-6.535-1.359-9.474-3.539a7.044,7.044,0,0,1-2.94-5.99q0-6.668-.163-14.973t-0.082-16.47q0.08-8.167.408-14.293a2.29,2.29,0,0,1,1.225-2.178q1.061-.408,1.715.953,7.021,14.43,16.008,29.81t17.478,31.171a3.548,3.548,0,0,0,2.368,1.5q1.715,0.408,2.7-1.77L97.313,49.861a1.643,1.643,0,0,1,.98-1.021q0.49-.067.49,0.749,0.49,7.35.735,15.586t0.572,16.675q0.324,8.441.816,16.606,0.326,4.084-2.123,5.785t-8.657,2.791a6.366,6.366,0,0,0-2.532,1.021,2.3,2.3,0,0,0-1.062,1.973,1.655,1.655,0,0,0,1.062,1.5,5.131,5.131,0,0,0,2.368.544q3.591,0,8.085-.2t8.82-.34q4.326-.135,7.6-0.136t8.167,0.136q4.9,0.137,9.882.272t8.412,0.136a4.206,4.206,0,0,0,2.2-.544,1.679,1.679,0,0,0,.9-1.5,1.96,1.96,0,0,0-1.062-1.905,13.587,13.587,0,0,0-2.532-.953,24.9,24.9,0,0,1-8.167-3.2,7.209,7.209,0,0,1-3.594-5.513Q128.02,89.2,127.449,82.6t-0.98-12.591q-0.409-5.988-.9-13.067t-0.98-17.015q-0.33-5.171,1.878-7.486a19.7,19.7,0,0,1,7.106-4.22q0.651-.271,1.715-0.681a11.738,11.738,0,0,1,1.715-.545,16.081,16.081,0,0,0,2.613-.953,1.836,1.836,0,0,0,1.144-1.769,1.715,1.715,0,0,0-1.225-1.7,8.4,8.4,0,0,0-3.022-.476q-4.575,0-12.5.613t-15.109.885h-7.35a2.657,2.657,0,0,0-2.777,1.77,35.848,35.848,0,0,0-1.388,4.7q-0.735,3.063-2.042,8.371L73.955,81.3a0.618,0.618,0,0,1-.572.544,0.9,0.9,0,0,1-.735-0.544L49.127,35.16q-1.309-2.721-2.287-4.968t-2.287-4.968a4.019,4.019,0,0,0-1.47-1.633,4.141,4.141,0,0,0-2.45-.817q-4.41,0-9.065-.136t-9.065-.2q-4.41-.067-8.085-0.2t-6.289-.136a8.387,8.387,0,0,0-3.022.476,1.715,1.715,0,0,0-1.225,1.7,2.1,2.1,0,0,0,1.225,1.906,11.361,11.361,0,0,0,3.185,1.089,40.067,40.067,0,0,1,4.574,1.293q2.121,0.75,3.92,1.565a7.622,7.622,0,0,1,3.185,2.45,7.225,7.225,0,0,1,1.062,4.22v2.722a8.7,8.7,0,0,1-.163,1.906Q19.724,52.584,18.582,63.4t-2.123,19.6q-0.98,8.78-1.8,13.816a11.684,11.684,0,0,1-3.512,6.806,17.2,17.2,0,0,1-6.615,3.947,23.633,23.633,0,0,1-2.94.885,1.578,1.578,0,0,0-1.47,1.565,1.674,1.674,0,0,0,.9,1.5,5.736,5.736,0,0,0,2.858.544h0Z"/>
</svg>
